STARTFONT 2.1
COMMENT
COMMENT Converted from OpenType font "nba-knicks.ttf" by "otf2bdf 3.0".
COMMENT
FONT -FreeType-NBA Knicks-Medium-R-Normal--9-90-72-72-P-44-ISO10646-1
SIZE 9 72 72
FONTBOUNDINGBOX 5 8 0 -1
STARTPROPERTIES 19
FOUNDRY "FreeType"
FAMILY_NAME "NBA Knicks"
WEIGHT_NAME "Medium"
SLANT "R"
SETWIDTH_NAME "Normal"
ADD_STYLE_NAME ""
PIXEL_SIZE 9
POINT_SIZE 90
RESOLUTION_X 72
RESOLUTION_Y 72
SPACING "P"
AVERAGE_WIDTH 44
CHARSET_REGISTRY "ISO10646"
CHARSET_ENCODING "1"
FONT_ASCENT 7
FONT_DESCENT 1
COPYRIGHT "Generated by Fontographer 4.1"
_OTF_FONTFILE "nba-knicks.ttf"
_OTF_PSNAME "NBAKnicks"
ENDPROPERTIES
CHARS 63
STARTCHAR 0020
ENCODING 32
SWIDTH 555 0
DWIDTH 5 0
BBX 0 0 0 0
BITMAP
ENDCHAR
STARTCHAR 0030
ENCODING 48
SWIDTH 666 0
DWIDTH 6 0
BBX 5 7 0 0
BITMAP
70
88
88
88
88
88
70
ENDCHAR
STARTCHAR 0031
ENCODING 49
SWIDTH 333 0
DWIDTH 3 0
BBX 2 7 0 0
BITMAP
40
C0
C0
C0
C0
C0
C0
ENDCHAR
STARTCHAR 0032
ENCODING 50
SWIDTH 555 0
DWIDTH 5 0
BBX 4 7 0 0
BITMAP
F0
10
10
70
E0
C0
F0
ENDCHAR
STARTCHAR 0033
ENCODING 51
SWIDTH 666 0
DWIDTH 6 0
BBX 5 7 0 0
BITMAP
70
88
38
38
38
C8
70
ENDCHAR
STARTCHAR 0034
ENCODING 52
SWIDTH 555 0
DWIDTH 5 0
BBX 5 7 0 0
BITMAP
30
30
70
D0
F8
10
38
ENDCHAR
STARTCHAR 0035
ENCODING 53
SWIDTH 666 0
DWIDTH 6 0
BBX 5 7 0 0
BITMAP
F8
C0
F0
F8
F8
08
F0
ENDCHAR
STARTCHAR 0036
ENCODING 54
SWIDTH 666 0
DWIDTH 6 0
BBX 5 7 0 0
BITMAP
78
80
80
F0
88
88
70
ENDCHAR
STARTCHAR 0037
ENCODING 55
SWIDTH 666 0
DWIDTH 6 0
BBX 5 7 0 0
BITMAP
F8
18
18
30
20
60
40
ENDCHAR
STARTCHAR 0038
ENCODING 56
SWIDTH 666 0
DWIDTH 6 0
BBX 5 7 0 0
BITMAP
70
88
88
F8
D8
D8
70
ENDCHAR
STARTCHAR 0039
ENCODING 57
SWIDTH 666 0
DWIDTH 6 0
BBX 5 7 0 0
BITMAP
70
88
C8
78
08
08
70
ENDCHAR
STARTCHAR 0041
ENCODING 65
SWIDTH 555 0
DWIDTH 5 0
BBX 4 7 0 0
BITMAP
60
60
60
60
60
A0
F0
ENDCHAR
STARTCHAR 0042
ENCODING 66
SWIDTH 555 0
DWIDTH 5 0
BBX 4 7 0 0
BITMAP
F0
90
90
E0
90
90
F0
ENDCHAR
STARTCHAR 0043
ENCODING 67
SWIDTH 444 0
DWIDTH 4 0
BBX 3 7 0 0
BITMAP
E0
80
80
80
80
80
E0
ENDCHAR
STARTCHAR 0044
ENCODING 68
SWIDTH 555 0
DWIDTH 5 0
BBX 4 7 0 0
BITMAP
F0
90
90
90
90
90
F0
ENDCHAR
STARTCHAR 0045
ENCODING 69
SWIDTH 444 0
DWIDTH 4 0
BBX 4 7 0 0
BITMAP
F0
80
80
C0
80
80
F0
ENDCHAR
STARTCHAR 0046
ENCODING 70
SWIDTH 444 0
DWIDTH 4 0
BBX 4 7 0 0
BITMAP
F0
80
80
C0
80
80
C0
ENDCHAR
STARTCHAR 0047
ENCODING 71
SWIDTH 444 0
DWIDTH 4 0
BBX 3 7 0 0
BITMAP
E0
80
80
A0
A0
A0
E0
ENDCHAR
STARTCHAR 0048
ENCODING 72
SWIDTH 555 0
DWIDTH 5 0
BBX 4 7 0 0
BITMAP
F0
90
90
F0
90
90
F0
ENDCHAR
STARTCHAR 0049
ENCODING 73
SWIDTH 222 0
DWIDTH 2 0
BBX 2 7 0 0
BITMAP
C0
80
80
80
80
80
C0
ENDCHAR
STARTCHAR 004A
ENCODING 74
SWIDTH 444 0
DWIDTH 4 0
BBX 4 7 0 0
BITMAP
30
20
20
20
20
20
E0
ENDCHAR
STARTCHAR 004B
ENCODING 75
SWIDTH 555 0
DWIDTH 5 0
BBX 4 7 0 0
BITMAP
F0
A0
A0
E0
A0
A0
F0
ENDCHAR
STARTCHAR 004C
ENCODING 76
SWIDTH 444 0
DWIDTH 4 0
BBX 4 7 0 0
BITMAP
C0
80
80
80
80
80
F0
ENDCHAR
STARTCHAR 004D
ENCODING 77
SWIDTH 666 0
DWIDTH 6 0
BBX 5 7 0 0
BITMAP
88
D8
D8
D8
A8
A8
F8
ENDCHAR
STARTCHAR 004E
ENCODING 78
SWIDTH 555 0
DWIDTH 5 0
BBX 5 7 0 0
BITMAP
D8
D0
D0
B0
B0
90
D0
ENDCHAR
STARTCHAR 004F
ENCODING 79
SWIDTH 444 0
DWIDTH 4 0
BBX 4 7 0 0
BITMAP
F0
90
90
90
90
90
F0
ENDCHAR
STARTCHAR 0050
ENCODING 80
SWIDTH 444 0
DWIDTH 4 0
BBX 4 7 0 0
BITMAP
F0
90
90
F0
80
80
C0
ENDCHAR
STARTCHAR 0051
ENCODING 81
SWIDTH 444 0
DWIDTH 4 0
BBX 4 8 0 -1
BITMAP
F0
90
90
90
90
B0
E0
20
ENDCHAR
STARTCHAR 0052
ENCODING 82
SWIDTH 555 0
DWIDTH 5 0
BBX 4 7 0 0
BITMAP
F0
90
90
F0
A0
A0
D0
ENDCHAR
STARTCHAR 0053
ENCODING 83
SWIDTH 444 0
DWIDTH 4 0
BBX 3 7 0 0
BITMAP
E0
80
80
E0
20
20
E0
ENDCHAR
STARTCHAR 0054
ENCODING 84
SWIDTH 444 0
DWIDTH 4 0
BBX 4 7 0 0
BITMAP
F0
40
40
40
40
40
60
ENDCHAR
STARTCHAR 0055
ENCODING 85
SWIDTH 555 0
DWIDTH 5 0
BBX 4 7 0 0
BITMAP
D0
90
90
90
90
90
70
ENDCHAR
STARTCHAR 0056
ENCODING 86
SWIDTH 555 0
DWIDTH 5 0
BBX 4 7 0 0
BITMAP
F0
A0
60
60
60
60
60
ENDCHAR
STARTCHAR 0057
ENCODING 87
SWIDTH 555 0
DWIDTH 5 0
BBX 5 7 0 0
BITMAP
D8
B0
70
70
70
70
50
ENDCHAR
STARTCHAR 0058
ENCODING 88
SWIDTH 555 0
DWIDTH 5 0
BBX 4 7 0 0
BITMAP
F0
60
60
60
60
60
F0
ENDCHAR
STARTCHAR 0059
ENCODING 89
SWIDTH 555 0
DWIDTH 5 0
BBX 4 7 0 0
BITMAP
F0
60
60
40
40
40
60
ENDCHAR
STARTCHAR 005A
ENCODING 90
SWIDTH 444 0
DWIDTH 4 0
BBX 3 7 0 0
BITMAP
E0
20
20
40
40
80
E0
ENDCHAR
STARTCHAR 0061
ENCODING 97
SWIDTH 555 0
DWIDTH 5 0
BBX 4 7 0 0
BITMAP
60
60
60
60
60
A0
F0
ENDCHAR
STARTCHAR 0062
ENCODING 98
SWIDTH 555 0
DWIDTH 5 0
BBX 4 7 0 0
BITMAP
F0
90
90
E0
90
90
F0
ENDCHAR
STARTCHAR 0063
ENCODING 99
SWIDTH 444 0
DWIDTH 4 0
BBX 3 7 0 0
BITMAP
E0
80
80
80
80
80
E0
ENDCHAR
STARTCHAR 0064
ENCODING 100
SWIDTH 555 0
DWIDTH 5 0
BBX 4 7 0 0
BITMAP
F0
90
90
90
90
90
F0
ENDCHAR
STARTCHAR 0065
ENCODING 101
SWIDTH 444 0
DWIDTH 4 0
BBX 4 7 0 0
BITMAP
F0
80
80
C0
80
80
F0
ENDCHAR
STARTCHAR 0066
ENCODING 102
SWIDTH 444 0
DWIDTH 4 0
BBX 4 7 0 0
BITMAP
F0
80
80
C0
80
80
C0
ENDCHAR
STARTCHAR 0067
ENCODING 103
SWIDTH 444 0
DWIDTH 4 0
BBX 3 7 0 0
BITMAP
E0
80
80
A0
A0
A0
E0
ENDCHAR
STARTCHAR 0068
ENCODING 104
SWIDTH 555 0
DWIDTH 5 0
BBX 4 7 0 0
BITMAP
F0
90
90
F0
90
90
F0
ENDCHAR
STARTCHAR 0069
ENCODING 105
SWIDTH 222 0
DWIDTH 2 0
BBX 2 7 0 0
BITMAP
C0
80
80
80
80
80
C0
ENDCHAR
STARTCHAR 006A
ENCODING 106
SWIDTH 444 0
DWIDTH 4 0
BBX 4 7 0 0
BITMAP
30
20
20
20
20
20
E0
ENDCHAR
STARTCHAR 006B
ENCODING 107
SWIDTH 555 0
DWIDTH 5 0
BBX 4 7 0 0
BITMAP
F0
A0
A0
E0
A0
A0
F0
ENDCHAR
STARTCHAR 006C
ENCODING 108
SWIDTH 444 0
DWIDTH 4 0
BBX 4 7 0 0
BITMAP
C0
80
80
80
80
80
F0
ENDCHAR
STARTCHAR 006D
ENCODING 109
SWIDTH 666 0
DWIDTH 6 0
BBX 5 7 0 0
BITMAP
88
D8
D8
D8
A8
A8
F8
ENDCHAR
STARTCHAR 006E
ENCODING 110
SWIDTH 555 0
DWIDTH 5 0
BBX 5 7 0 0
BITMAP
D8
D0
D0
B0
B0
90
D0
ENDCHAR
STARTCHAR 006F
ENCODING 111
SWIDTH 444 0
DWIDTH 4 0
BBX 4 7 0 0
BITMAP
F0
90
90
90
90
90
F0
ENDCHAR
STARTCHAR 0070
ENCODING 112
SWIDTH 444 0
DWIDTH 4 0
BBX 4 7 0 0
BITMAP
F0
90
90
F0
80
80
C0
ENDCHAR
STARTCHAR 0071
ENCODING 113
SWIDTH 444 0
DWIDTH 4 0
BBX 4 8 0 -1
BITMAP
F0
90
90
90
90
B0
E0
20
ENDCHAR
STARTCHAR 0072
ENCODING 114
SWIDTH 555 0
DWIDTH 5 0
BBX 4 7 0 0
BITMAP
F0
90
90
F0
A0
A0
D0
ENDCHAR
STARTCHAR 0073
ENCODING 115
SWIDTH 444 0
DWIDTH 4 0
BBX 3 7 0 0
BITMAP
E0
80
80
E0
20
20
E0
ENDCHAR
STARTCHAR 0074
ENCODING 116
SWIDTH 444 0
DWIDTH 4 0
BBX 4 7 0 0
BITMAP
F0
40
40
40
40
40
60
ENDCHAR
STARTCHAR 0075
ENCODING 117
SWIDTH 555 0
DWIDTH 5 0
BBX 4 7 0 0
BITMAP
D0
90
90
90
90
90
70
ENDCHAR
STARTCHAR 0076
ENCODING 118
SWIDTH 555 0
DWIDTH 5 0
BBX 4 7 0 0
BITMAP
F0
A0
60
60
60
60
60
ENDCHAR
STARTCHAR 0077
ENCODING 119
SWIDTH 555 0
DWIDTH 5 0
BBX 5 7 0 0
BITMAP
D8
B0
70
70
70
70
50
ENDCHAR
STARTCHAR 0078
ENCODING 120
SWIDTH 555 0
DWIDTH 5 0
BBX 4 7 0 0
BITMAP
F0
60
60
60
60
60
F0
ENDCHAR
STARTCHAR 0079
ENCODING 121
SWIDTH 555 0
DWIDTH 5 0
BBX 4 7 0 0
BITMAP
F0
60
60
40
40
40
60
ENDCHAR
STARTCHAR 007A
ENCODING 122
SWIDTH 444 0
DWIDTH 4 0
BBX 3 7 0 0
BITMAP
E0
20
20
40
40
80
E0
ENDCHAR
ENDFONT
